<svg width="81" height="81" viewBox="0 0 81 81" fill="none" xmlns="http://www.w3.org/2000/svg">
<circle cx="40.5" cy="40.5" r="40.5" fill="#FF7008"/>
<g clip-path="url(#clip0_2_31)">
<path d="M54.28 41.88C54.36 41.28 54.4 40.66 54.4 40C54.4 39.36 54.36 38.72 54.26 38.12L58.32 34.96C58.68 34.68 58.78 34.14 58.56 33.74L54.72 27.1C54.48 26.66 53.98 26.52 53.54 26.66L48.76 28.58C47.76 27.82 46.7 27.18 45.52 26.7L44.8 21.62C44.72 21.14 44.32 20.8 43.84 20.8H36.16C35.68 20.8 35.3 21.14 35.22 21.62L34.5 26.7C33.32 27.18 32.24 27.84 31.26 28.58L26.48 26.66C26.04 26.5 25.54 26.66 25.3 27.1L21.48 33.74C21.24 34.16 21.32 34.68 21.72 34.96L25.78 38.12C25.68 38.72 25.6 39.38 25.6 40C25.6 40.62 25.64 41.28 25.74 41.88L21.68 45.04C21.32 45.32 21.22 45.86 21.44 46.26L25.28 52.9C25.52 53.34 26.02 53.48 26.46 53.34L31.24 51.42C32.24 52.18 33.3 52.82 34.48 53.3L35.2 58.38C35.3 58.86 35.68 59.2 36.16 59.2H43.84C44.32 59.2 44.72 58.86 44.78 58.38L45.5 53.3C46.68 52.82 47.76 52.18 48.74 51.42L53.52 53.34C53.96 53.5 54.46 53.34 54.7 52.9L58.54 46.26C58.78 45.82 58.68 45.32 58.3 45.04L54.28 41.88ZM40 47.2C36.04 47.2 32.8 43.96 32.8 40C32.8 36.04 36.04 32.8 40 32.8C43.96 32.8 47.2 36.04 47.2 40C47.2 43.96 43.96 47.2 40 47.2Z" fill="white"/>
</g>
<defs>
<clipPath id="clip0_2_31">
<rect width="48" height="48" fill="white" transform="translate(16 16)"/>
</clipPath>
</defs>
</svg>
