<svg width="40" height="40" viewBox="0 0 40 40" fill="none" xmlns="http://www.w3.org/2000/svg">
<g clip-path="url(#clip0_2_14)">
<path d="M20 36.6667C21.8334 36.6667 23.3334 35.1667 23.3334 33.3333H16.6667C16.6667 35.1667 18.1667 36.6667 20 36.6667ZM30 26.6667V18.3333C30 13.2167 27.2834 8.93334 22.5 7.8V6.66667C22.5 5.28334 21.3834 4.16667 20 4.16667C18.6167 4.16667 17.5 5.28334 17.5 6.66667V7.8C12.7334 8.93334 10 13.2 10 18.3333V26.6667L6.66669 30V31.6667H33.3334V30L30 26.6667ZM26.6667 28.3333H13.3334V18.3333C13.3334 14.2 15.85 10.8333 20 10.8333C24.15 10.8333 26.6667 14.2 26.6667 18.3333V28.3333Z" fill="#FF7008"/>
</g>
<defs>
<clipPath id="clip0_2_14">
<rect width="40" height="40" fill="white"/>
</clipPath>
</defs>
</svg>
